<?xml version="1.0" encoding="UTF-8"?><svg xmlns="http://www.w3.org/2000/svg" xmlns:xlink="http://www.w3.org/1999/xlink" height="507.6" preserveAspectRatio="xMidYMid meet" version="1.0" viewBox="31.2 31.5 481.9 507.6" width="481.9" zoomAndPan="magnify"><g id="change1_1"><path d="M230.4,305.1c-30.7,19.3-55,34.1-78.6,49.8c-21.2,14.1-41.3,29.8-62.6,43.8c-13.2,8.7-28.7,17.5-43.7,6.9 c-12.5-8.8-14.3-49.2-4-63.1c7.4-10.1,16.3-19.6,26.1-27.5c27.3-21.9,55.8-42.4,83-64.5c9.6-7.8,16.8-18.4,25.7-28.2 c-2.9-33.9-24-60.1-30.1-90.8c-1.7-8.4,1.7-18.2,4-27c1.9-7.3,8.1-9.6,15.5-6.9c5.8,2.2,12.8,3.7,16.6,7.9 c14.9,16.5,28.5,34.2,43,51.1c10.5,12.2,28.8,13.6,42.9,2.8c35.3-27.2,69.7-55.7,105.6-82.1c20.3-15,42.5-27.8,64.8-39.6 c11.7-6.2,25-2.2,35.8,5.7c16.5,12.1,21.2,37.7,8.2,50.2c-18.2,17.6-37.2,34.5-56.9,50.4c-32.2,25.9-65.4,50.7-98,76.2 c-7.5,5.9-14.1,12.7-21,19.4c-7.8,7.6-9.6,25-3,35.4c51.8,80.7,108.7,157.1,185.3,216.5c7.4,5.8,15.5,11.3,21,18.6 c3.1,4,2.3,11.6,1.8,17.4c-0.2,2.3-4.1,5.4-6.9,6.1c-19.1,5.5-39.1,5.2-55-6c-28.4-20.2-56.8-41.4-81.4-65.9 c-36-35.8-71.3-72.7-100.6-114.7C258.8,334.1,246.8,323.3,230.4,305.1z" fill="inherit"/></g></svg>