<?xml version="1.0" encoding="UTF-8" standalone="no"?><svg xmlns="http://www.w3.org/2000/svg" xmlns:xlink="http://www.w3.org/1999/xlink" fill="#000000" height="525.2" preserveAspectRatio="xMidYMid meet" version="1" viewBox="0.0 0.0 458.6 525.2" width="458.6" zoomAndPan="magnify"><g id="change1_1"><path d="M135.28,372.81c-16.25,0-32.13-11.47-44.73-32.3C80.1,323.22,73.6,302.14,73.6,285.5 c0-34.01,27.67-61.68,61.68-61.68s61.68,27.67,61.68,61.68c0,16.64-6.5,37.72-16.95,55.01 C167.42,361.34,151.53,372.81,135.28,372.81z M135.28,238.82c-25.74,0-46.68,20.94-46.68,46.68c0,13.85,5.8,32.39,14.79,47.25 c9.63,15.93,21.26,25.07,31.9,25.07c24.07,0,46.68-45.11,46.68-72.31C181.97,259.76,161.02,238.82,135.28,238.82z" fill="#5ce1e6"/></g><g id="change1_2"><path d="M263.07,525.23H7.5c-4.14,0-7.5-3.36-7.5-7.5c0-74.6,60.69-135.28,135.28-135.28 s135.28,60.69,135.28,135.28C270.57,521.87,267.21,525.23,263.07,525.23z M15.23,510.23h240.11 c-3.88-62.85-56.25-112.78-120.05-112.78S19.11,447.38,15.23,510.23z" fill="#5ce1e6"/></g><g id="change1_3"><path d="M219.92,249.65c-0.93,0-1.86-0.17-2.76-0.53c-2.84-1.13-4.72-3.87-4.74-6.92l-0.38-59.35 c-22.75-3.59-40.21-23.34-40.21-47.08v-88.1C171.83,21.38,193.21,0,219.49,0h191.41c26.28,0,47.66,21.38,47.66,47.67v88.1 c0,26.28-21.38,47.67-47.66,47.67H286.17l-60.81,63.89C223.91,248.84,221.94,249.65,219.92,249.65z M219.49,15 c-18.01,0-32.67,14.65-32.67,32.67v88.1c0,18.01,14.65,32.67,32.67,32.67c4.12,0,7.47,3.33,7.5,7.45l0.31,47.63l50.22-52.76 c1.42-1.49,3.38-2.33,5.43-2.33h127.96c18.01,0,32.66-14.65,32.66-32.67v-88.1c0-18.01-14.65-32.67-32.66-32.67H219.49z" fill="#5ce1e6"/></g><g id="change2_1"><path d="M349.48,66.17c0,22.35-24,22.95-24,39.75c0,4.2-3,8.25-8.25,8.25s-8.25-4.05-8.25-8.25 c0-20.85,24.75-24.3,24.75-40.2c0-7.65-6.3-15.75-17.55-15.75c-12,0-18.15,8.85-18,19.5c0,4.2-2.55,8.4-8.1,8.4s-8.1-4.2-8.1-8.4 c0-21.15,16.8-33.15,34.2-33.15C333.88,36.32,349.48,47.87,349.48,66.17z M307.63,133.37c0-5.1,4.2-9.3,9.45-9.3 c4.95,0,9.15,4.2,9.15,9.3c0,5.25-4.2,9.45-9.15,9.45C311.83,142.82,307.63,138.62,307.63,133.37z" fill="#5ce1e6"/></g></svg>