<?xml version="1.0" encoding="UTF-8"?><svg xmlns="http://www.w3.org/2000/svg" xmlns:xlink="http://www.w3.org/1999/xlink" height="487.9" preserveAspectRatio="xMidYMid meet" version="1.0" viewBox="-7.3 -7.3 489.0 487.9" width="489.0" zoomAndPan="magnify"><defs><linearGradient gradientUnits="userSpaceOnUse" id="c" x1="256" x2="256" xlink:actuate="onLoad" xlink:show="other" xlink:type="simple" xmlns:xlink="http://www.w3.org/1999/xlink" y1="59.083" y2="452.917"><stop offset="0" stop-color="#00e8e2"/><stop offset="1" stop-color="#0062f2"/></linearGradient><linearGradient gradientTransform="translate(209.229 -1162.085)" gradientUnits="userSpaceOnUse" id="d" x1="94.906" x2="-55.029" xlink:actuate="onLoad" xlink:show="other" xlink:type="simple" xmlns:xlink="http://www.w3.org/1999/xlink" y1="1261.405" y2="1521.099"><stop offset="0" stop-color="#dd4e8e"/><stop offset=".22" stop-color="#da4d8f"/><stop offset=".396" stop-color="#d04991"/><stop offset=".558" stop-color="#bf4496"/><stop offset=".71" stop-color="#a73c9c"/><stop offset=".855" stop-color="#8931a3"/><stop offset=".995" stop-color="#6425ad"/><stop offset="1" stop-color="#6224ad"/></linearGradient><linearGradient gradientTransform="rotate(-45 -1278.207 557.648)" gradientUnits="userSpaceOnUse" id="a" x1="18.646" x2="-22.711" xlink:actuate="onLoad" xlink:show="other" xlink:type="simple" xmlns:xlink="http://www.w3.org/1999/xlink" y1="1406.179" y2="1477.812"><stop offset="0" stop-color="#ffda71"/><stop offset=".232" stop-color="#ffd86e"/><stop offset=".418" stop-color="#fdd264"/><stop offset=".589" stop-color="#fbc753"/><stop offset=".749" stop-color="#f7b83b"/><stop offset=".902" stop-color="#f3a41d"/><stop offset="1" stop-color="#ef9505"/></linearGradient><linearGradient gradientTransform="rotate(-45 -1278.207 557.648)" gradientUnits="userSpaceOnUse" id="b" x1="-34.37" x2="-75.728" xlink:actuate="onLoad" xlink:show="other" xlink:type="simple" xmlns:xlink="http://www.w3.org/1999/xlink" y1="1375.57" y2="1447.203"><stop offset="0" stop-color="#ffda71"/><stop offset=".098" stop-color="#fbcb59"/><stop offset=".251" stop-color="#f7b73b"/><stop offset=".411" stop-color="#f3a823"/><stop offset=".582" stop-color="#f19d12"/><stop offset=".768" stop-color="#ef9708"/><stop offset="1" stop-color="#ef9505"/></linearGradient><linearGradient id="e" x1="108.865" x2="60.712" xlink:actuate="onLoad" xlink:href="#a" xlink:show="other" xlink:type="simple" xmlns:xlink="http://www.w3.org/1999/xlink" y1="1331.367" y2="1414.771"/><linearGradient id="f" x1="59.225" x2="11.071" xlink:actuate="onLoad" xlink:href="#b" xlink:show="other" xlink:type="simple" xmlns:xlink="http://www.w3.org/1999/xlink" y1="1302.707" y2="1386.111"/></defs><g><path d="M478.939,248.3083,374.1309,66.7751a15.3839,15.3839,0,0,0-13.3227-7.6919H150.76a14.6353,14.6353,0,0,0-12.6743,7.3176L33.061,248.3083a15.3835,15.3835,0,0,0,0,15.3835l104.8081,181.533a15.3838,15.3838,0,0,0,13.3227,7.6919H360.8082a15.3839,15.3839,0,0,0,13.3227-7.6919L478.939,263.6918A15.3835,15.3835,0,0,0,478.939,248.3083ZM358.1429,432.9167H153.8567L51.7142,256.0007,153.8567,79.0837H358.1429l102.1426,176.917Z" fill="url(#c)"/><g id="change1_1"><path d="M315.7233,315.7222c-82.8155,82.8155-188.7026,111.1983-236.5057,63.3952l53.6654,53.6654c47.8031,47.803,153.69,19.42,236.5048-63.3944S480.5861,180.6859,432.783,132.8828L379.1176,79.2174C426.9207,127.0205,398.5379,232.9076,315.7233,315.7222Z" fill="#4e1d93"/></g><ellipse cx="229.167" cy="229.167" fill="url(#d)" rx="212.062" ry="122.408" transform="rotate(-45 229.167 229.168)"/><g id="change2_1"><ellipse cx="229.167" cy="229.167" fill="#ffd7eb" rx="156.081" ry="90.094" transform="rotate(-45 229.167 229.168)"/></g><path d="M298.303 224.695L200.721 336.474 215.661 280.081 298.303 224.695z" fill="url(#a)"/><path d="M152.002 263.896L215.661 280.081 200.721 336.474 152.002 263.896z" fill="url(#b)"/><g id="change3_1"><path d="M238.632 193.37L302.316 209.548 219.68 264.91 238.632 193.37z" fill="#c67100"/></g><g id="change4_1"><path d="M238.632 193.37L219.68 264.91 156.014 248.749 238.632 193.37z" fill="#dd8300"/></g><path d="M257.583 121.83L302.316 209.548 238.632 193.37 257.583 121.83z" fill="url(#e)"/><path d="M257.583 121.83L238.632 193.37 156.014 248.749 257.583 121.83z" fill="url(#f)"/></g></svg>